# xmcd
#
# Track frame offsets: 
#        150
#        15350
#        35667
#        52662
#        71275
#        87225
#        105687
#        122755
#        140292
#        156717
#        172480
#        188530
#        205150
#        219917
#        240162
#        253400
#        270300
#        289097
#        305685
#
# Disc length: 4298 seconds
#
# Revision: 2
# Processed by: cddbd v1.5.1PL2 Copyright (c) Steve Scherf et al.
# Submitted via: ExactAudioCopy v0.95b3
#
DISCID=0b10c813
DTITLE=Various Artist - Radioactivity 9902
DYEAR=1999
DGENRE=Pop
TTITLE0=Emilia - Big Big World (Single Version)
TTITLE1=Shawn Mullins - Lullaby (Single Version)
TTITLE2=911 - A Little Bit More (Radio Mix)
TTITLE3=New Radicals - You Get What You Give (Single Version)
TTITLE4=The Goo Goo Dolls - Slide (Single Version)
TTITLE5=The Living End - All Torn Down (Album Version)
TTITLE6=Korn - Got The Life (Single Edit)
TTITLE7=Josh Abrahams and Amiel Daemion - Addicted To Bass (Original Ver
TTITLE7=sion)
TTITLE8=A+ - Enjoy Yourself (Radio Edit)
TTITLE9=Britney Spears - Baby One More Time (Radio Version)
TTITLE10=All Saints - Bootie Call (Single Version)
TTITLE11=Lauryn Hill - Can't Take My Eyes Off You (Album Version)
TTITLE12=Popsie - Joyful Life (Radio Edit)
TTITLE13=Steps - Tragedy (Single Version)
TTITLE14=Daddy's Favorite - I Feel Good Things For You (Radio Edit)
TTITLE15=Foundation Feat. Deskee - Get Up (September) (Funk Train Mix 
TTITLE15=Radio Edit)
TTITLE16=Dannii - Everlasting Night (Radio Edit)
TTITLE17=Bomfunk MC's - Uprocking Beats (Radio Edit)
TTITLE18=666 - Amokk (Radio Edit)
EXTD=
EXTT0=
EXTT1=
EXTT2=
EXTT3=
EXTT4=
EXTT5=
EXTT6=
EXTT7=
EXTT8=
EXTT9=
EXTT10=
EXTT11=
EXTT12=
EXTT13=
EXTT14=
EXTT15=
EXTT16=
EXTT17=
EXTT18=
PLAYORDER=
